<svg xmlns="http://www.w3.org/2000/svg" viewBox="0 0 499.82 290.32"><defs><style>.cls-1{fill:#e2390c;}.cls-2{fill:#f25333;}.cls-3{fill:#fc684f;}.cls-4{fill:#fc9688;}</style></defs><title>movietracks</title><g id="Layer_1" data-name="Layer 1"><path class="cls-1" d="M.18,322.9H10.36l1.15,7.64v0c4.1-6.55,9.56-8.52,14.86-8.52,5.56,0,9.56,2.7,11.54,8.1,4.1-6.18,9.4-8.1,14.6-8.1,8.26,0,13,5.92,13,17.56v54.83H52.41V340.1c0-6.29-1.82-8.42-6.08-8.42-2.39,0-5,1.92-7,5,0,.62,0,1.25,0,1.87v55.92H26.27V340.1c0-6.29-1.82-8.42-6.08-8.42-2.34,0-4.94,1.87-6.86,4.89v57.89H.18Z" transform="translate(-0.18 -104.97)"/><path class="cls-1" d="M77.31,363.75V352.52c0-27.8,11.07-30.45,20-30.45,8.58,0,19.65,2.28,19.65,30.45v11.23c0,27.8-11.44,31.49-19.7,31.49C88.06,395.24,77.31,392,77.31,363.75Zm26.4,3.53V349.66c0-13.41-1.67-18-6.4-18-4.93,0-6.8,4.57-6.8,18v17.62c0,13.41,1.87,17.82,6.8,17.82C102,385.1,103.71,380.69,103.71,367.28Z" transform="translate(-0.18 -104.97)"/><path class="cls-1" d="M122.63,322.9h13.09l6.92,38,1.71,15.23h.42l2-15.23,6.86-38h12.68L150,394.46H138.74Z" transform="translate(-0.18 -104.97)"/><path class="cls-1" d="M174.18,322.9h13.15v71.56H174.18Z" transform="translate(-0.18 -104.97)"/><path class="cls-1" d="M199.18,365.15V351.64c0-27.34,13-29.57,20.64-29.57,9.45,0,18,5.09,18,22.34a81.67,81.67,0,0,1-1.72,16.74H212.38v7.27c0,12.48,1.67,16.68,7.64,16.68,3.22,0,6.24-2.33,6.24-9.87V373h11v2.75c0,13.56-6.65,19.49-18.91,19.49S199.18,386.46,199.18,365.15Zm26.4-12.84c.16-1.5.21-5.45.21-7.32,0-9.46-2.23-13.31-6.6-13.31-4.62,0-6.81,3.95-6.81,16.27v4.36Z" transform="translate(-0.18 -104.97)"/><path class="cls-1" d="M250.48,332.25h-5.56V322.9h6.7l2.65-18.55h9.36V322.9h11.43v9.35H263.63v45.53c0,6.23,2.6,7.32,5.66,7.32a11.32,11.32,0,0,0,6.24-1.76v7.27c-3,3.69-7.22,4.68-10.91,4.68-7.33,0-14.14-3.12-14.14-18.66Z" transform="translate(-0.18 -104.97)"/><path class="cls-1" d="M284.05,322.9h9.62l1.14,7.27c2.86-5.4,6.86-8.1,10.81-8.1,7.54,0,11.07,4.67,11.07,13.93a36.94,36.94,0,0,1-1.77,9.71h-9.14v-6.65c0-5.77-1.56-7.38-3.48-7.38-2.08,0-3.9,1.46-5.1,3.85v58.93H284.05Z" transform="translate(-0.18 -104.97)"/><path class="cls-1" d="M321.06,378c0-11.75,5.82-17.93,16.73-23.34,2.6-1.3,6.29-2.8,8.84-3.74V341.5c0-5.56-.42-9.82-6-9.82-3.74,0-7.27,2.55-7.27,10.76v3.12h-10a30.21,30.21,0,0,1-.94-7.07c0-10.65,7.74-16.42,18.66-16.42,14.24,0,18.34,6.13,18.34,18.81v53.58h-9.77l-.93-6.13a16.65,16.65,0,0,1-13.83,6.91C326.05,395.24,321.06,387.81,321.06,378Zm25.57,4.1v-22.4a33,33,0,0,0-5.15,2.5A15.77,15.77,0,0,0,334,376c0,5.46,2,9.09,6.75,9.09A8.42,8.42,0,0,0,346.63,382.14Z" transform="translate(-0.18 -104.97)"/><path class="cls-1" d="M371.16,365.15V351.64c0-27.34,12.89-29.57,20.11-29.57,9.72,0,16.43,5,16.43,15.74a29.49,29.49,0,0,1-.89,7.75h-10.5v-2.39c0-7.17-1.61-11.49-5.45-11.49-4.26,0-6.39,3.59-6.39,15.9V367.9c0,12.48,1.56,17.2,6.7,17.2,2.65,0,5.14-2.33,5.14-9.87V373h11.33v2.75c0,13.56-6,19.49-17.92,19.49C377.66,395.24,371.16,385.42,371.16,365.15Z" transform="translate(-0.18 -104.97)"/><path class="cls-1" d="M418.51,299.93h13.15v54.41h.41l14.35-31.44H459l-15.9,32.74,17.41,38.82H447.14L432.07,359h-.41v35.5H418.51Z" transform="translate(-0.18 -104.97)"/><path class="cls-1" d="M465.75,371.49H475c0,10.39,1.93,13.61,7.64,13.61,3.95,0,5.67-2.59,5.67-5.5,0-3.07-1.67-5.41-4.47-8.84l-9.62-11.33c-5-6.29-9.61-12.73-9.61-21,0-11.13,8.21-16.32,17.57-16.32,10.34,0,17,5,17,14.86a37,37,0,0,1-1.3,8.83h-9.09c-.16-9.4-1.1-14.08-6.4-14.08-4.57,0-6,3.17-6,6.19,0,3.32,1.71,5.92,4.36,9.25l10.5,12.31c3,3.8,8.73,10.71,8.73,19.08,0,10.08-6.55,16.73-18.24,16.73-9.61,0-17.31-3.95-17.31-15.75A27.51,27.51,0,0,1,465.75,371.49Z" transform="translate(-0.18 -104.97)"/></g><g id="Layer_2" data-name="Layer 2"><ellipse class="cls-2" cx="189.44" cy="282.08" rx="36.25" ry="22.44" transform="translate(-97.89 -4.55) rotate(-23.8)"/><circle class="cls-3" cx="212.25" cy="124.98" r="12.5"/><circle class="cls-3" cx="212.25" cy="87.49" r="12.5"/><circle class="cls-4" cx="212.25" cy="49.99" r="12.5"/><circle class="cls-4" cx="212.25" cy="12.5" r="12.5"/><circle class="cls-4" cx="249.74" cy="49.99" r="12.5"/><circle class="cls-4" cx="249.74" cy="12.5" r="12.5"/><circle class="cls-4" cx="363.48" cy="49.99" r="12.5"/><circle class="cls-4" cx="363.48" cy="12.5" r="12.5"/><circle class="cls-3" cx="363.48" cy="124.98" r="12.5"/><circle class="cls-3" cx="363.48" cy="86.24" r="12.5"/><circle class="cls-4" cx="288.49" cy="49.99" r="12.5"/><circle class="cls-4" cx="288.49" cy="12.5" r="12.5"/><circle class="cls-4" cx="325.98" cy="49.99" r="12.5"/><circle class="cls-4" cx="325.98" cy="12.5" r="12.5"/><ellipse class="cls-2" cx="340.65" cy="282.05" rx="36.25" ry="22.44" transform="translate(-85.02 56.46) rotate(-23.8)"/></g></svg>