<?xml version="1.0" encoding="utf-8"?>
<!-- Generator: Adobe Illustrator 23.0.6, SVG Export Plug-In . SVG Version: 6.00 Build 0)  -->
<svg version="1.1" xmlns="http://www.w3.org/2000/svg" xmlns:xlink="http://www.w3.org/1999/xlink" x="0px" y="0px"
	 viewBox="0 0 500 500" style="enable-background:new 0 0 500 500;" xml:space="preserve">
<style type="text/css">
	.st0{fill:#F25333;}
	.st1{fill:#FC684F;}
	.st2{fill:#FC9688;}
</style>
<g id="Layer_1">
</g>
<g id="Layer_2">
	<g>
		
			<ellipse transform="matrix(0.915 -0.4035 0.4035 0.915 -161.5452 68.6727)" class="st0" cx="82.19" cy="417.69" rx="79.96" ry="49.5"/>
		<circle class="st1" cx="132.89" cy="302.7" r="27.57"/>
		<circle class="st1" cx="132.89" cy="220.01" r="27.57"/>
		<circle class="st2" cx="132.89" cy="137.31" r="27.57"/>
		<circle class="st2" cx="132.89" cy="54.61" r="27.57"/>
		<circle class="st2" cx="215.59" cy="137.31" r="27.57"/>
		<circle class="st2" cx="215.59" cy="54.61" r="27.57"/>
		<circle class="st2" cx="466.43" cy="137.31" r="27.57"/>
		<circle class="st2" cx="466.43" cy="54.61" r="27.57"/>
		<circle class="st1" cx="466.43" cy="302.7" r="27.57"/>
		<circle class="st1" cx="466.43" cy="217.25" r="27.57"/>
		<circle class="st2" cx="301.04" cy="137.31" r="27.57"/>
		<circle class="st2" cx="301.04" cy="54.61" r="27.57"/>
		<circle class="st2" cx="383.74" cy="137.31" r="27.57"/>
		<circle class="st2" cx="383.74" cy="54.61" r="27.57"/>
		
			<ellipse transform="matrix(0.915 -0.4035 0.4035 0.915 -133.1608 203.2325)" class="st0" cx="415.69" cy="417.61" rx="79.96" ry="49.5"/>
	</g>
</g>
</svg>
